<?xml version="1.0" standalone="no"?>
<!DOCTYPE svg PUBLIC "-//W3C//DTD SVG 20010904//EN"
 "http://www.w3.org/TR/2001/REC-SVG-20010904/DTD/svg10.dtd">
<svg version="1.0" xmlns="http://www.w3.org/2000/svg"
 width="667.000000pt" height="667.000000pt" viewBox="0 0 667.000000 667.000000"
 preserveAspectRatio="xMidYMid meet">
<metadata>
Created by potrace 1.11, written by Peter Selinger 2001-2013
</metadata>
<g transform="translate(0.000000,667.000000) scale(0.100000,-0.100000)"
fill="#000000" stroke="none">
<path d="M2809 6379 c14 -13 26 -18 32 -12 5 5 -4 14 -23 21 l-31 11 22 -20z"/>
<path d="M2892 6386 c-28 -16 -42 -31 -21 -24 9 4 16 1 16 -8 0 -7 -4 -11 -9
-8 -5 3 -16 0 -25 -8 -14 -11 -16 -11 -8 2 6 12 5 13 -5 3 -10 -9 -16 -8 -28
3 -17 18 -43 15 -50 -6 -5 -13 -3 -13 14 0 18 14 18 14 5 -2 -18 -24 -31 -23
-31 2 0 12 10 24 23 30 24 9 23 10 -9 14 -12 1 -21 -2 -21 -8 1 -37 -4 -56
-13 -51 -5 3 -10 1 -10 -5 0 -6 -15 -8 -42 -4 -26 5 -39 3 -35 -3 3 -5 0 -10
-8 -10 -8 0 -15 4 -15 9 0 5 -31 7 -70 6 -38 -2 -70 -6 -70 -10 0 -5 8 -8 18
-9 13 0 14 -2 2 -6 -8 -4 -21 -12 -28 -20 -24 -23 -33 -14 -17 17 16 31 5 41
-19 18 -13 -14 -16 -21 -16 -42 0 -23 -29 -28 -147 -27 -74 1 -113 -2 -113 -9
0 -6 10 -14 22 -19 18 -6 19 -9 5 -14 -10 -4 -22 1 -31 15 -16 23 -39 16 -29
-9 5 -13 2 -15 -20 -9 -21 5 -25 3 -20 -9 4 -11 -1 -18 -15 -22 -12 -3 -23
-12 -25 -22 -4 -14 -5 -14 -6 2 -1 13 -10 17 -42 17 -24 0 -38 -4 -34 -10 8
-13 -1 -13 -26 0 -17 10 -19 7 -19 -20 0 -22 5 -30 18 -30 15 -1 15 -2 1 -10
-8 -5 -52 -10 -95 -12 l-80 -2 -3 -35 c-1 -19 -3 -37 -5 -39 -2 -2 -32 -3 -67
-3 -72 -1 -89 -10 -89 -48 0 -16 -8 -31 -21 -39 -12 -8 -18 -9 -15 -4 3 6 -11
10 -34 10 -28 1 -40 -3 -40 -14 0 -8 -5 -14 -11 -14 -6 0 -9 7 -5 15 4 10 -1
15 -14 15 -17 0 -20 -7 -20 -40 0 -43 1 -43 -79 -42 l-34 1 27 -19 c15 -10 23
-20 18 -24 -5 -3 -12 0 -15 8 -6 16 -23 16 -47 1 -13 -7 -13 -6 -2 7 9 12 10
18 2 23 -16 10 -25 -2 -26 -38 -1 -18 1 -26 3 -19 6 16 20 16 20 -1 0 -14 -7
-16 -69 -17 -34 -1 -37 -4 -34 -28 1 -19 7 -27 20 -25 17 1 17 0 0 -16 -12
-11 -32 -16 -61 -14 l-43 3 0 -40 c0 -40 0 -40 -40 -40 -28 0 -40 -4 -40 -14
0 -8 6 -17 13 -19 9 -4 9 -6 0 -6 -7 -1 -13 -10 -13 -21 0 -21 -7 -23 -50 -21
-21 2 -26 -3 -28 -24 -1 -15 2 -24 8 -20 6 3 10 4 10 2 0 -11 -57 -41 -75 -39
-14 1 -21 -5 -22 -18 -2 -23 -35 -57 -60 -62 -12 -2 -18 -13 -19 -33 -1 -17
-2 -33 -3 -37 -1 -5 -19 -8 -41 -8 -29 0 -40 -4 -40 -15 0 -8 5 -15 10 -15 6
0 10 -5 10 -11 0 -5 -5 -7 -11 -4 -6 4 -9 0 -7 -11 2 -16 -5 -20 -39 -22 l-43
-3 -1 -42 c-1 -23 -1 -45 0 -49 1 -8 -26 -4 -35 5 -10 10 -44 9 -44 -2 0 -5 7
-14 15 -21 10 -8 13 -21 9 -33 -4 -14 -3 -17 6 -12 9 5 11 4 6 -4 -11 -17 -28
-2 -21 19 3 10 1 21 -5 25 -6 4 -10 -4 -10 -19 0 -14 -6 -26 -12 -27 -7 -1
-24 -2 -37 -2 -13 -1 -26 -8 -28 -15 -3 -7 1 -10 11 -6 11 4 14 -1 12 -22 -2
-16 -8 -30 -15 -32 -6 -2 -11 -21 -11 -42 0 -38 -1 -39 -37 -42 -39 -3 -49
-20 -30 -45 6 -9 6 -13 -2 -13 -6 0 -11 -17 -11 -39 0 -22 -5 -43 -10 -46 -6
-4 -8 -11 -5 -16 4 -5 -2 -6 -12 -2 -16 6 -17 5 -3 -12 9 -11 10 -16 2 -11 -7
4 -12 2 -13 -6 0 -7 -4 -3 -9 10 -11 25 -30 30 -30 7 0 -8 5 -15 10 -15 6 0
10 -5 10 -11 0 -5 -4 -7 -10 -4 -14 9 -12 -8 3 -24 10 -11 10 -13 0 -7 -8 4
-13 1 -13 -8 0 -9 -8 -14 -20 -13 -11 1 -20 5 -20 9 0 4 -4 8 -10 8 -5 0 -6
-8 -3 -17 5 -12 2 -15 -10 -10 -9 3 -17 2 -17 -3 0 -6 4 -10 8 -10 4 0 8 -9 8
-20 0 -11 -3 -20 -6 -20 -4 0 -8 -25 -9 -56 -1 -37 1 -54 8 -49 6 3 11 1 11
-4 0 -6 -4 -11 -10 -11 -5 0 -9 -3 -9 -7 4 -24 -5 -32 -38 -35 -31 -2 -39 -7
-41 -27 -3 -19 0 -22 13 -17 9 3 19 6 21 6 3 0 2 4 -1 10 -4 6 1 7 11 3 11 -4
13 -8 6 -11 -7 -2 -10 -8 -6 -13 3 -5 2 -9 -3 -8 -35 6 -38 -1 -40 -88 -1 -52
-6 -89 -12 -91 -6 -2 -8 -9 -5 -15 5 -8 2 -8 -7 1 -22 20 -30 13 -14 -12 16
-24 15 -24 -6 -19 -18 5 -21 3 -16 -12 5 -13 3 -16 -8 -11 -11 4 -15 -1 -15
-19 0 -27 9 -32 28 -13 7 7 12 9 12 4 0 -12 -27 -36 -34 -29 -3 4 -6 0 -6 -7
0 -7 8 -19 18 -26 12 -10 13 -13 2 -9 -12 4 -16 -3 -16 -33 -3 -100 -16 -195
-25 -179 -5 9 -16 14 -24 11 -9 -4 -15 0 -15 10 0 9 7 16 15 16 8 0 15 5 15
10 0 6 -11 10 -25 10 -27 0 -30 -6 -16 -42 4 -13 5 -48 1 -78 -8 -61 -2 -97
11 -64 6 14 8 9 8 -18 1 -24 -4 -38 -11 -38 -10 0 -14 -32 -16 -120 -2 -78 1
-120 8 -120 5 0 10 -7 10 -15 0 -8 5 -15 11 -15 5 0 7 -4 4 -10 -10 -17 -23
-11 -28 13 -2 12 -5 -2 -6 -30 -1 -47 1 -53 19 -53 17 0 20 -7 20 -42 l-1 -43
-13 30 c-12 28 -13 29 -20 8 -11 -35 -4 -92 11 -86 8 3 13 -3 14 -13 4 -74 7
-103 13 -129 4 -16 8 -39 9 -51 1 -11 8 -28 16 -37 9 -12 14 -52 15 -136 1
-116 7 -149 19 -116 4 8 2 15 -3 15 -6 0 -10 5 -10 11 0 8 4 8 14 -1 11 -8 12
-18 6 -36 -5 -13 -6 -24 -1 -24 4 0 8 -7 8 -16 0 -12 -5 -10 -18 7 -21 27 -24
22 -9 -16 6 -17 16 -25 24 -22 18 7 30 -20 13 -27 -7 -3 -2 -3 10 0 22 5 22 3
25 -98 l3 -103 38 -3 37 -3 0 -58 c0 -32 6 -63 12 -70 10 -11 10 -13 0 -7 -9
5 -12 -7 -12 -48 0 -39 4 -56 13 -56 7 0 14 12 15 26 1 14 9 32 17 40 19 20
19 11 0 -27 -17 -32 -19 -28 29 -43 11 -4 14 -17 10 -50 -2 -25 0 -48 6 -51 9
-6 14 8 11 28 -1 5 3 6 9 2 6 -3 8 -10 5 -15 -7 -11 20 -32 30 -22 5 4 5 1 1
-6 -6 -10 -11 -10 -22 -1 -12 10 -18 9 -31 -3 -32 -33 15 -49 52 -18 14 11 18
11 33 -4 16 -16 16 -17 0 -10 -14 4 -18 1 -18 -14 0 -15 5 -19 20 -15 12 3 20
0 20 -6 0 -7 -4 -9 -10 -6 -5 3 -10 -3 -10 -15 0 -13 -4 -19 -12 -14 -7 4 -8
3 -4 -4 4 -7 23 -12 42 -12 33 0 34 -1 35 -42 1 -24 1 -55 0 -70 0 -17 4 -28
11 -28 9 0 8 -4 -2 -10 -12 -8 -10 -10 8 -10 13 0 21 4 18 9 -3 4 10 1 29 -7
23 -11 31 -19 25 -27 -5 -6 -8 -20 -8 -32 2 -14 9 -20 28 -21 54 0 59 -2 54
-17 -4 -8 -3 -27 0 -41 7 -25 8 -26 21 -8 13 18 14 18 15 2 0 -11 8 -18 20
-18 21 0 23 -7 23 -82 0 -21 4 -38 9 -38 4 0 8 10 8 22 0 12 3 19 6 15 3 -3 3
-20 -1 -38 -5 -23 -10 -28 -16 -18 -7 11 -9 10 -9 -3 0 -14 7 -17 35 -15 19 2
38 6 41 10 13 13 27 8 17 -5 -5 -7 -10 -30 -12 -50 -1 -33 1 -38 19 -38 14 0
19 4 14 12 -4 7 8 3 28 -9 28 -16 39 -18 49 -10 10 10 11 9 3 -3 -11 -17 -13
-41 -2 -37 3 1 17 -8 30 -21 14 -12 28 -19 33 -15 4 5 5 0 2 -9 -7 -20 9 -35
16 -16 4 10 6 10 6 1 1 -7 8 -13 18 -13 14 0 14 3 -3 22 l-19 22 27 -20 c15
-10 30 -25 33 -33 4 -10 2 -11 -7 -4 -8 7 -22 7 -35 2 -39 -14 -25 -24 32 -23
67 1 73 -2 77 -46 3 -33 6 -35 40 -38 38 -3 40 -6 41 -48 0 -16 5 -20 21 -17
17 4 18 3 6 -6 -12 -9 -10 -11 11 -11 14 0 30 5 37 12 10 10 15 9 25 -2 7 -8
8 -12 3 -8 -17 13 -26 9 -26 -13 0 -13 4 -18 13 -13 9 6 9 4 0 -7 -26 -27 -15
-45 25 -46 20 0 56 -1 80 -2 l42 -1 0 -40 c0 -30 4 -40 16 -40 9 0 12 5 8 13
-6 9 -4 9 7 1 21 -17 59 -24 59 -11 0 15 13 -1 16 -19 2 -10 -3 -14 -12 -10
-8 3 -14 1 -14 -3 0 -5 6 -12 13 -14 10 -4 10 -6 0 -6 -7 -1 -13 -7 -13 -15 0
-10 16 -13 65 -12 36 0 64 5 64 11 -1 6 -5 9 -11 7 -5 -1 -7 2 -3 8 5 8 11 8
21 -1 7 -6 11 -15 8 -20 -3 -5 0 -9 5 -9 6 0 11 -12 11 -26 0 -14 4 -23 9 -20
4 3 17 -2 27 -10 14 -12 15 -14 3 -11 -9 3 -22 1 -30 -3 -10 -7 -7 -9 11 -8
14 1 31 6 38 11 8 6 12 6 12 -2 0 -15 43 -14 59 2 11 10 12 9 6 -2 -6 -11 -4
-13 8 -8 13 5 17 1 17 -14 0 -11 4 -17 10 -14 5 3 10 -1 10 -9 0 -26 18 -18
27 11 9 27 10 27 16 4 3 -13 3 -20 0 -17 -3 3 -12 -2 -18 -11 -11 -15 -15 -15
-29 -4 -14 12 -16 11 -16 -7 0 -16 5 -19 23 -15 12 3 28 11 35 16 10 8 12 7
10 -4 -2 -11 11 -15 55 -16 38 -2 57 1 57 9 0 9 3 9 12 0 7 -7 20 -12 30 -12
11 0 18 -7 18 -19 0 -27 26 -44 60 -39 24 4 27 2 19 -9 -9 -10 -2 -13 39 -13
28 0 54 5 57 10 3 6 11 10 16 10 6 0 7 -5 3 -12 -4 -6 -3 -8 3 -5 14 9 73 -3
73 -14 0 -5 -7 -6 -15 -3 -8 4 -15 1 -15 -6 0 -8 13 -11 40 -8 46 4 51 -3 15
-22 -33 -18 -32 -30 4 -27 16 1 27 6 23 11 -3 6 2 6 14 1 30 -14 124 -15 124
-2 0 9 2 9 8 1 4 -7 21 -12 37 -12 17 0 53 0 82 -1 l52 -1 3 -37 c3 -37 4 -38
46 -41 37 -3 47 1 66 22 22 27 41 33 50 17 4 -5 -3 -7 -13 -4 -16 4 -19 1 -14
-16 4 -18 12 -21 42 -19 20 1 39 7 43 12 5 7 8 7 8 -1 0 -7 5 -13 11 -13 15 0
39 26 32 34 -4 3 3 6 15 6 11 0 24 -4 27 -10 3 -5 -1 -10 -9 -10 -9 0 -16 -4
-16 -8 0 -4 9 -8 19 -8 11 0 17 4 15 8 -8 12 35 9 74 -5 28 -10 36 -9 39 1 5
14 43 17 43 2 0 -6 47 -10 120 -10 66 0 120 4 120 9 0 11 69 25 78 16 4 -3 0
-10 -8 -16 -10 -6 18 -9 82 -8 62 1 96 5 92 11 -4 6 3 5 15 -2 12 -6 30 -9 39
-7 12 3 10 5 -6 6 -13 0 -21 5 -17 10 3 5 -5 12 -17 14 -20 4 -19 4 5 6 30 1
43 -2 40 -9 0 -3 6 -11 14 -19 13 -12 14 -11 9 5 -5 17 -1 19 33 19 22 0 37
-3 35 -7 -3 -5 3 -8 13 -8 15 0 16 -2 3 -10 -10 -6 -2 -7 25 -3 49 7 58 13 21
13 -16 0 -25 4 -21 10 3 6 1 10 -5 10 -6 0 -8 5 -5 10 4 6 12 4 21 -5 9 -8 20
-15 25 -15 12 0 12 17 -1 25 -5 3 -10 12 -10 18 0 8 3 7 9 -2 7 -11 9 -11 13
0 3 10 40 13 165 11 156 -1 161 -1 156 18 -4 15 0 20 16 20 13 0 21 6 21 16 0
14 -2 15 -17 3 -16 -13 -17 -12 -4 3 18 24 31 23 31 -2 0 -12 -9 -24 -22 -29
-13 -5 -17 -10 -11 -14 15 -9 43 20 43 44 0 10 3 18 8 18 20 -3 32 2 26 12 -5
8 -1 8 14 0 30 -16 36 -14 21 7 -13 16 -13 16 7 0 26 -23 69 -24 60 -3 -7 20
8 19 28 -1 15 -14 16 -14 16 3 0 14 2 15 9 4 12 -18 32 -5 24 16 -5 13 -2 15
20 9 20 -5 25 -3 21 8 -7 19 4 25 57 27 24 1 50 7 58 13 12 9 13 8 7 -2 -6
-10 -2 -13 15 -10 18 2 24 10 25 28 1 14 2 31 3 38 0 6 13 12 28 12 14 0 23 3
20 7 -8 7 22 32 39 33 6 0 11 -7 11 -15 0 -11 -4 -12 -13 -4 -8 7 -14 7 -19
-1 -10 -16 24 -24 51 -11 15 7 23 7 19 1 -3 -5 0 -10 8 -10 9 0 14 9 13 24 -1
20 -4 22 -16 13 -8 -6 -6 0 5 13 28 35 33 38 62 32 15 -3 29 1 34 9 6 10 9 10
9 2 0 -8 13 -13 33 -13 31 0 33 2 35 37 4 46 5 48 48 44 19 -1 42 3 51 11 9 7
14 8 10 2 -5 -8 2 -11 19 -10 19 1 24 5 20 19 -2 9 0 15 5 11 5 -3 9 5 9 17 0
19 -2 20 -17 8 -16 -12 -17 -12 -6 2 7 9 11 18 8 20 -2 3 18 3 45 2 39 -3 50
-1 50 11 0 8 6 17 13 19 9 4 9 8 -1 15 -19 13 7 22 59 22 22 0 38 4 35 8 -3 4
8 7 25 6 18 -1 29 3 29 11 0 7 17 26 38 42 24 17 38 35 36 46 -1 9 2 17 6 17
5 0 12 9 15 20 4 14 15 20 35 20 27 0 29 3 32 43 2 33 7 42 21 41 9 -1 17 2
17 7 0 6 9 5 20 -1 18 -10 20 -8 20 30 l0 40 40 0 40 0 0 40 c0 41 7 46 61 42
11 -1 17 7 17 23 0 14 -5 25 -10 25 -5 0 -3 7 6 15 8 8 29 15 46 15 36 0 49
23 31 52 -10 16 -10 19 0 12 8 -5 11 -2 6 8 -4 12 0 15 16 11 13 -3 18 -1 12
4 -12 9 -13 29 -2 37 4 3 5 3 2 0 -9 -13 16 -44 35 -44 14 0 18 6 16 30 -2 32
-16 54 -16 26 0 -9 -5 -14 -10 -11 -11 7 5 35 18 33 23 -2 93 6 75 9 -12 2
-27 11 -33 19 -10 12 -8 14 14 14 16 0 25 -4 21 -10 -3 -5 -2 -10 4 -10 5 0 9
12 9 28 0 15 0 48 1 73 l1 46 38 -1 c30 -1 37 3 38 19 3 55 3 55 45 55 l41 0
-5 90 c-3 50 -1 93 4 96 5 3 6 -1 3 -9 -4 -11 4 -14 35 -13 23 0 41 4 41 8 0
5 -5 8 -12 8 -9 0 -9 3 0 12 7 7 12 19 12 28 0 12 -2 12 -9 2 -7 -11 -9 -10
-14 3 -4 9 -3 14 3 10 17 -10 23 24 9 42 -8 10 -9 14 -2 10 7 -5 13 1 15 15 2
18 10 22 37 23 20 0 36 6 39 14 3 8 0 11 -6 8 -5 -4 -15 -1 -21 7 -9 11 -8 14
6 12 13 -1 18 8 20 41 2 23 -1 44 -7 48 -5 3 -10 12 -10 18 0 7 4 6 10 -3 7
-11 10 0 10 38 0 55 4 58 65 54 19 -2 19 -1 3 12 -10 7 -18 19 -18 27 0 11 2
11 10 -1 5 -8 12 -11 17 -7 4 4 2 16 -5 27 -7 12 -8 21 -2 25 6 3 10 41 10 85
0 62 3 79 16 84 24 9 31 7 14 -4 -11 -7 -6 -10 20 -10 26 0 31 3 20 10 -10 6
-11 10 -2 10 19 0 14 17 -6 22 -10 3 -19 13 -19 22 0 9 5 15 11 13 6 -3 10
-10 9 -16 -2 -6 1 -11 6 -11 4 0 9 33 10 74 1 64 -1 75 -16 79 -17 4 -17 5 0
6 19 1 23 16 7 26 -7 4 -7 11 -2 18 5 7 9 39 10 72 2 155 2 155 17 155 8 0 15
9 15 21 0 11 -4 17 -10 14 -11 -7 -13 22 -3 80 5 31 8 35 14 20 5 -15 8 -8 8
22 1 23 -4 43 -10 45 -6 2 -11 54 -12 138 -1 74 -5 138 -10 141 -4 3 -8 52 -9
110 0 57 -5 110 -11 117 -5 7 -6 12 0 12 11 0 16 57 5 64 -5 3 -7 -5 -5 -18 3
-13 -1 -27 -8 -31 -9 -6 -10 -3 -6 10 4 9 3 23 -3 30 -8 10 -6 15 9 20 23 7
28 40 9 48 -10 4 -10 6 0 6 6 1 12 6 12 12 0 6 -7 8 -16 5 -14 -5 -15 -4 -5 8
10 12 9 14 -6 10 -11 -3 -23 3 -31 16 -7 12 -8 20 -2 20 5 0 10 9 10 20 0 11
-7 20 -15 20 -9 0 -15 9 -15 25 0 14 -5 25 -11 25 -8 0 -8 4 -1 13 14 16 12
77 -2 77 -7 0 -7 3 -1 8 6 4 11 26 13 50 3 36 0 42 -16 42 -20 0 -26 -29 -8
-41 11 -8 -2 -31 -14 -24 -5 3 -7 17 -4 31 4 20 0 27 -16 31 -16 4 -20 14 -20
44 0 26 -5 42 -15 45 -8 4 -12 11 -9 16 4 6 9 6 14 -2 4 -7 8 18 7 56 0 38 -5
72 -11 76 -16 11 -58 10 -51 -1 3 -5 0 -13 -7 -17 -7 -4 -10 -4 -6 1 4 4 0 14
-10 22 -9 8 -11 11 -4 8 10 -5 13 8 11 64 -2 57 -5 71 -18 72 -12 0 -11 3 4 9
15 6 8 9 -28 9 -46 1 -47 2 -41 27 6 25 5 26 -17 15 -22 -11 -22 -11 -6 2 10
8 20 27 23 41 3 21 1 24 -12 19 -11 -4 -15 -2 -11 4 9 14 -13 31 -35 28 -10
-2 -17 0 -17 3 1 4 1 28 0 55 -1 45 -2 47 -31 47 -17 0 -30 -5 -30 -12 0 -8
-3 -8 -9 -3 -5 6 -11 47 -13 92 -3 78 -9 96 -23 73 -3 -5 -20 -1 -39 10 -19
10 -37 16 -42 12 -4 -4 -4 -1 0 6 4 7 12 10 17 7 5 -4 9 0 9 7 0 8 -10 14 -21
15 -22 2 -59 35 -59 53 0 5 -5 10 -11 10 -5 0 -7 -5 -3 -12 5 -7 3 -8 -6 -3
-10 6 -10 10 2 19 8 6 15 19 15 29 0 13 -8 17 -36 16 -20 -1 -28 -3 -18 -6 9
-2 15 -9 11 -14 -13 -21 -34 15 -34 58 0 36 -3 44 -17 42 -56 -5 -63 -1 -63
42 l0 41 -42 -3 -43 -4 1 43 1 44 -42 -4 c-33 -2 -41 0 -37 11 4 10 1 12 -9 6
-11 -6 -12 -5 -1 6 6 7 12 22 12 34 0 16 -6 20 -34 20 -19 0 -38 -4 -43 -9 -5
-5 0 -6 12 -2 15 5 17 4 8 -5 -16 -16 -32 -3 -26 21 3 12 0 20 -6 20 -7 0 -9
5 -4 13 4 6 9 20 10 30 2 14 -2 17 -19 15 -13 -2 -26 -7 -30 -13 -5 -6 -8 -5
-8 4 0 10 -4 11 -12 3 -10 -8 -13 0 -13 36 0 39 -3 47 -20 49 l-20 3 20 -9
c15 -7 16 -10 4 -10 -9 -1 -19 2 -22 6 -13 12 -61 12 -69 0 -6 -9 -8 -9 -8 0
0 7 -7 10 -15 7 -9 -4 -18 3 -24 18 -5 14 -17 32 -26 41 -9 10 -12 17 -6 17 5
0 14 -8 20 -17 9 -16 10 -15 8 5 -1 18 -7 22 -35 22 -18 0 -31 -4 -28 -8 3 -5
-4 -8 -16 -7 -12 1 -22 9 -24 19 -1 11 2 16 10 13 9 -4 13 5 14 24 0 16 -4 29
-9 29 -6 0 -7 -6 -4 -12 4 -7 -1 -4 -10 7 -13 16 -19 18 -35 7 -14 -8 -20 -9
-20 -1 0 7 -16 10 -44 8 -24 -2 -43 -3 -41 -1 2 2 -3 15 -10 29 -8 15 -12 30
-9 35 3 4 -2 5 -11 2 -8 -4 -21 -2 -28 3 -6 6 -28 11 -47 12 -48 2 -68 6 -77
15 -4 4 -2 6 6 4 7 -2 16 3 18 10 3 6 -1 12 -7 12 -9 0 -9 4 0 16 8 8 9 14 4
13 -5 -2 -31 1 -58 5 -36 6 -51 4 -57 -5 -14 -23 -46 16 -41 50 2 16 -1 32 -8
36 -16 10 -22 1 -23 -39 -1 -30 -3 -33 -17 -23 -25 19 -26 20 -9 14 12 -4 17
1 17 19 0 29 -14 40 -32 25 -7 -6 -16 -7 -20 -3 -4 4 -33 8 -64 9 -31 1 -64 2
-72 2 -12 1 -15 10 -12 40 4 36 2 39 -23 39 -19 0 -23 -3 -14 -9 11 -7 10 -9
-3 -9 -9 0 -18 -3 -21 -7 -2 -5 -2 -2 -1 4 2 7 -7 13 -19 14 -20 0 -114 6
-144 8 -7 1 -13 13 -13 29 0 15 -4 32 -8 38 -8 14 -62 16 -62 3 0 -5 7 -9 16
-9 8 0 12 -4 9 -10 -7 -12 -36 -14 -34 -2 4 26 -5 30 -68 30 -39 0 -71 -5 -75
-12 -6 -8 -8 -7 -8 2 0 6 -5 12 -11 12 -5 0 -7 -4 -4 -10 3 -5 1 -10 -4 -10
-6 0 -11 5 -11 11 0 8 -6 7 -17 -2 -9 -8 -14 -9 -10 -2 5 8 -7 11 -41 12 -65
2 -167 18 -127 21 17 1 24 4 17 7 -6 2 -10 9 -7 13 3 5 -16 8 -42 8 -27 -1
-61 1 -78 5 -16 3 -40 6 -53 6 -14 1 -21 5 -16 12 4 8 1 8 -13 1 -10 -6 -32
-9 -49 -6 -88 14 -137 16 -130 5 4 -6 1 -11 -6 -12 -7 0 -4 -4 7 -9 20 -8 20
-9 -1 -9 -11 -1 -30 8 -42 19 -20 19 -33 20 -137 18 -86 -2 -115 -6 -115 -15
0 -7 -9 -13 -21 -13 -11 0 -18 4 -14 9 10 17 -34 23 -57 7 l-22 -15 25 -10 24
-10 -25 0 c-39 -1 -70 10 -70 24 0 8 10 16 23 18 15 3 12 5 -12 6 -28 1 -33
-2 -28 -18 5 -19 -19 -38 -31 -26 -3 3 -1 5 4 5 5 0 10 9 11 20 2 23 -3 23
-35 6z m388 -16 l25 -8 -25 -1 c-14 0 -32 4 -40 9 -13 9 -13 10 0 9 8 -1 26
-5 40 -9z m330 -8 c0 -5 -7 -9 -15 -9 -8 0 -12 4 -9 9 3 4 9 8 15 8 5 0 9 -4
9 -8z m100 -12 c0 -5 -7 -10 -15 -10 -8 0 -15 5 -15 10 0 6 7 10 15 10 8 0 15
-4 15 -10z m387 -66 c-3 -3 -12 -4 -19 -1 -8 3 -5 6 6 6 11 1 17 -2 13 -5z
m108 -14 c-3 -5 -12 -10 -18 -10 -7 0 -6 4 3 10 19 12 23 12 15 0z m-1984 -63
c-10 -9 -11 -8 -5 6 3 10 9 15 12 12 3 -3 0 -11 -7 -18z m2246 1 c-3 -8 -6 -5
-6 6 -1 11 2 17 5 13 3 -3 4 -12 1 -19z m-22 -18 c-3 -5 -12 -10 -18 -10 -7 0
-6 4 3 10 19 12 23 12 15 0z m-2295 -9 c0 -5 -9 -11 -20 -14 -11 -3 -20 -1
-20 3 0 5 8 11 18 13 9 3 18 5 20 6 1 0 2 -3 2 -8z m2455 -43 c5 4 5 1 1 -6
-5 -9 -12 -9 -27 -2 -10 6 -19 13 -19 16 0 2 8 0 19 -5 10 -6 22 -7 26 -3z
m-2800 -88 c-3 -5 -14 -10 -23 -10 -15 0 -15 2 -2 10 20 13 33 13 25 0z m3025
-15 c7 -9 8 -15 2 -15 -5 0 -12 7 -16 15 -3 8 -4 15 -2 15 2 0 9 -7 16 -15z
m-3310 -154 c0 -13 -28 -22 -35 -11 -3 4 1 11 7 13 20 8 28 8 28 -2z m3632
-25 c7 4 8 2 4 -5 -9 -13 -26 -5 -25 12 0 9 2 8 6 -1 2 -6 10 -9 15 -6z m98
-62 c0 -8 -19 -13 -24 -6 -3 5 1 9 9 9 8 0 15 -2 15 -3z m-3984 -70 c-4 -9 -9
-15 -11 -12 -3 3 -3 13 1 22 4 9 9 15 11 12 3 -3 3 -13 -1 -22z m29 16 c3 -5
1 -10 -4 -10 -6 0 -11 5 -11 10 0 6 2 10 4 10 3 0 8 -4 11 -10z m4091 -12 c4
-6 3 -8 -4 -4 -5 3 -12 0 -15 -6 -3 -10 -8 -10 -18 1 -8 8 -9 11 -2 7 6 -3 14
-2 18 4 8 13 12 13 21 -2z m44 -32 c0 -3 -4 -8 -10 -11 -5 -3 -10 -1 -10 4 0
6 5 11 10 11 6 0 10 -2 10 -4z m55 -57 c3 -3 -6 -5 -19 -5 -14 1 -28 4 -31 7
-3 3 6 5 19 5 14 -1 28 -4 31 -7z m-4335 -3 c0 -3 -4 -8 -10 -11 -5 -3 -10 -1
-10 4 0 6 5 11 10 11 6 0 10 -2 10 -4z m-585 -627 c4 -5 -2 -6 -11 -2 -13 5
-15 3 -9 -7 5 -9 4 -11 -3 -6 -7 4 -12 2 -12 -4 0 -6 -4 -9 -10 -5 -5 3 -7 11
-4 18 5 15 41 20 49 6z m-51 -67 c3 -5 -1 -9 -9 -9 -8 0 -12 4 -9 9 3 4 7 8 9
8 2 0 6 -4 9 -8z m5774 -277 c-3 -3 -9 2 -12 12 -6 14 -5 15 5 6 7 -7 10 -15
7 -18z m-5968 -62 c0 -10 -32 -43 -42 -43 -12 0 -10 24 4 38 13 13 38 16 38 5z
m-57 -86 c3 -8 1 -20 -4 -28 -6 -10 -9 -7 -9 14 0 29 5 35 13 14z m6090 -17
c3 -11 1 -20 -4 -20 -5 0 -9 6 -9 14 0 8 -6 17 -12 19 -8 4 -7 6 3 6 9 1 19
-8 22 -19z m27 10 c0 -5 -5 -10 -11 -10 -5 0 -7 5 -4 10 3 6 8 10 11 10 2 0 4
-4 4 -10z m-3020 -77 c0 -5 -15 -9 -33 -10 -23 -2 -28 0 -17 7 18 12 50 13 50
3z m35 -263 c20 -5 6 -7 -47 -7 -42 0 -75 4 -72 9 6 10 76 9 119 -2z m-3335
-431 c0 -11 -4 -17 -10 -14 -6 4 -10 -5 -10 -19 0 -14 -4 -26 -10 -26 -5 0
-10 18 -10 40 0 33 3 40 20 40 14 0 20 -7 20 -21z m-40 -226 c-11 -17 -11 -17
-6 0 3 10 7 26 7 35 1 15 2 15 6 0 2 -10 -1 -25 -7 -35z m17 -115 c0 -24 -2
-33 -4 -20 -2 12 -9 20 -14 17 -5 -4 -9 5 -9 19 0 15 6 26 13 26 9 0 14 -14
14 -42z m3210 -140 c-3 -8 -6 -5 -6 6 -1 11 2 17 5 13 3 -3 4 -12 1 -19z m180
0 c-3 -8 -6 -5 -6 6 -1 11 2 17 5 13 3 -3 4 -12 1 -19z m3100 -515 c-3 -10 -5
-4 -5 12 0 17 2 24 5 18 2 -7 2 -21 0 -30z m-6420 -55 c-3 -8 -6 -5 -6 6 -1
11 2 17 5 13 3 -3 4 -12 1 -19z m3249 -141 c4 -4 -2 -7 -14 -7 -11 0 -23 4
-26 8 -6 10 30 9 40 -1z m3086 -103 c-3 -24 -7 -32 -13 -23 -4 7 -6 16 -5 19
2 3 6 13 9 23 10 27 13 20 9 -19z m-6249 -89 c4 -8 2 -17 -2 -20 -5 -2 -11 4
-14 15 -6 23 8 27 16 5z m6148 -148 c-10 -9 -11 -8 -5 6 3 10 9 15 12 12 3 -3
0 -11 -7 -18z m-64 -149 c-3 -8 -6 -5 -6 6 -1 11 2 17 5 13 3 -3 4 -12 1 -19z
m-78 -176 c-1 -17 -3 -21 -6 -9 -2 9 -8 15 -13 12 -5 -3 -7 -12 -3 -20 3 -8 1
-15 -5 -15 -10 0 -10 7 3 47 9 30 25 19 24 -15z m24 -7 c-3 -9 -8 -14 -10 -11
-3 3 -2 9 2 15 9 16 15 13 8 -4z m-83 -59 c0 -3 -4 -8 -10 -11 -5 -3 -10 -1
-10 4 0 6 5 11 10 11 6 0 10 -2 10 -4z m-5583 -113 c0 -8 -6 -9 -19 -2 -10 5
-18 11 -18 12 0 2 8 3 18 3 10 0 19 -6 19 -13z m211 -258 c-3 -3 -9 2 -12 12
-6 14 -5 15 5 6 7 -7 10 -15 7 -18z m5139 9 c-3 -3 -12 -4 -19 -1 -8 3 -5 6 6
6 11 1 17 -2 13 -5z m-5135 -76 c-7 -7 -12 -8 -12 -2 0 14 12 26 19 19 2 -3
-1 -11 -7 -17z m78 -52 c0 -2 -9 -6 -20 -9 -11 -3 -20 -1 -20 4 0 5 9 9 20 9
11 0 20 -2 20 -4z m48 -21 c-3 -3 -9 2 -12 12 -6 14 -5 15 5 6 7 -7 10 -15 7
-18z m4828 3 c4 -7 3 -8 -4 -4 -7 4 -12 2 -12 -3 0 -6 -5 -11 -11 -11 -8 0 -8
5 1 15 15 18 17 18 26 3z m-4769 -83 c0 -8 -4 -12 -9 -9 -5 3 -6 10 -3 15 9
13 12 11 12 -6z m360 -327 c-3 -8 -6 -5 -6 6 -1 11 2 17 5 13 3 -3 4 -12 1
-19z m192 -71 c8 -10 7 -14 -2 -14 -8 0 -14 6 -14 14 0 7 1 13 2 13 2 0 8 -6
14 -13z m3485 -73 c3 -8 2 -12 -4 -9 -6 3 -10 10 -10 16 0 14 7 11 14 -7z
m-3391 -11 c-21 -16 -40 -16 -49 -1 -4 7 -3 8 4 4 7 -4 12 -4 12 1 0 4 11 8
25 8 23 0 24 -1 8 -12z m123 -53 c16 0 23 4 18 11 -3 6 5 3 20 -6 30 -20 35
-31 8 -16 -10 5 -24 6 -32 1 -17 -10 -50 5 -49 23 0 9 2 9 6 0 2 -7 16 -13 29
-13z m149 -50 c-3 -5 -11 -10 -16 -10 -6 0 -7 5 -4 10 3 6 11 10 16 10 6 0 7
-4 4 -10z m67 -62 c-6 -6 -7 0 -4 19 5 21 7 23 10 9 2 -10 0 -22 -6 -28z
m2704 10 c4 -6 3 -8 -4 -4 -6 3 -13 2 -17 -4 -3 -5 -11 -10 -18 -10 -6 0 -2 7
9 15 23 18 21 17 30 3z m-116 -37 c0 -5 -9 -11 -20 -14 -11 -3 -20 -1 -20 3 0
5 8 11 18 13 9 3 18 5 20 6 1 0 2 -3 2 -8z m-2360 -25 c0 -2 -7 -6 -15 -10 -8
-3 -15 -1 -15 4 0 6 7 10 15 10 8 0 15 -2 15 -4z m38 -20 c-7 -8 -15 -12 -17
-11 -5 6 10 25 20 25 5 0 4 -6 -3 -14z m247 -86 c3 -6 1 -10 -4 -10 -6 0 -11
5 -11 10 0 6 -7 10 -15 10 -8 0 -15 5 -15 10 0 12 35 -4 45 -20z m1750 21 c3
-6 -4 -15 -15 -21 -19 -10 -20 -10 -8 9 15 24 15 24 23 12z m-80 -11 c3 -6 -1
-7 -9 -4 -18 7 -21 14 -7 14 6 0 13 -4 16 -10z m-1339 -85 c-6 -16 -56 -21
-56 -6 0 5 8 7 19 4 10 -3 22 0 26 7 4 7 1 11 -6 9 -31 -4 -42 4 -14 10 32 7
41 0 31 -24z m30 -2 c-11 -11 -19 6 -11 24 8 17 8 17 12 0 3 -10 2 -21 -1 -24z
m1010 25 c-10 -6 -22 -6 -26 -2 -5 5 3 10 18 11 22 1 24 0 8 -9z m-186 -12 c0
-11 -19 -15 -25 -6 -3 5 1 10 9 10 9 0 16 -2 16 -4z m-321 -22 c9 -8 -75 -3
-88 5 -8 5 5 7 35 4 27 -3 51 -7 53 -9z m96 6 c-3 -5 -14 -10 -23 -10 -15 0
-15 2 -2 10 20 13 33 13 25 0z"/>
<path d="M285 4589 c-11 -17 1 -21 15 -4 8 9 8 15 2 15 -6 0 -14 -5 -17 -11z"/>
<path d="M3628 6393 c7 -3 16 -2 19 1 4 3 -2 6 -13 5 -11 0 -14 -3 -6 -6z"/>
<path d="M3670 6390 c8 -5 26 -10 39 -10 32 0 24 6 -19 14 -25 4 -31 3 -20 -4z"/>
<path d="M3760 6391 c0 -6 11 -11 24 -11 14 0 32 -10 40 -22 l16 -22 0 21 c0
14 -8 24 -22 28 -13 4 -31 9 -40 11 -10 3 -18 1 -18 -5z"/>
<path d="M2400 6281 c0 -25 6 -27 13 -6 4 8 2 17 -3 20 -6 4 -10 -3 -10 -14z"/>
<path d="M2080 6223 c0 -7 2 -13 4 -13 2 0 13 -3 23 -7 15 -6 16 -4 5 9 -10
13 -10 17 0 21 7 3 3 4 -9 4 -13 -1 -23 -7 -23 -14z"/>
<path d="M5027 5985 c-4 -8 -2 -17 3 -20 6 -4 10 3 10 14 0 25 -6 27 -13 6z"/>
<path d="M5955 5190 c-3 -5 1 -10 9 -10 9 0 19 0 23 -1 4 0 9 4 11 10 5 14
-35 14 -43 1z"/>
<path d="M6175 4870 c3 -5 8 -10 11 -10 2 0 4 5 4 10 0 6 -5 10 -11 10 -5 0
-7 -4 -4 -10z"/>
<path d="M6206 4871 c-3 -5 1 -14 8 -20 16 -13 32 2 21 19 -8 12 -22 13 -29 1z"/>
<path d="M83 4140 c1 -11 2 -20 3 -20 1 0 10 3 18 6 13 5 14 9 5 20 -16 20
-28 17 -26 -6z"/>
<path d="M6524 4055 c-4 -14 -4 -29 0 -32 9 -10 36 18 36 38 0 28 -29 23 -36
-6z m13 -17 c-3 -8 -6 -5 -6 6 -1 11 2 17 5 13 3 -3 4 -12 1 -19z"/>
<path d="M6608 3564 c-5 -4 -8 -17 -8 -28 0 -17 -2 -18 -10 -6 -6 9 -10 10
-10 3 0 -17 14 -23 29 -14 7 5 11 18 9 31 -1 12 -6 18 -10 14z"/>
<path d="M6610 3450 c0 -6 -3 -9 -7 -7 -5 3 -9 -15 -10 -39 -1 -24 2 -44 7
-44 6 0 10 9 10 19 0 11 3 28 7 38 6 16 8 15 14 -7 7 -25 7 -25 8 -2 1 13 -6
30 -14 38 -9 9 -15 11 -15 4z"/>
<path d="M6616 3338 c-3 -13 -5 -41 -5 -63 1 -26 3 -32 6 -16 4 19 7 21 14 10
7 -11 9 -11 9 3 0 9 -5 20 -11 23 -6 4 -7 19 -4 36 8 34 0 40 -9 7z"/>
<path d="M6592 3190 c0 -14 2 -19 5 -12 2 6 2 18 0 25 -3 6 -5 1 -5 -13z"/>
<path d="M6611 3183 c1 -10 5 -29 9 -43 7 -21 8 -22 9 -5 1 11 4 30 7 43 5 16
2 22 -10 22 -9 0 -16 -8 -15 -17z"/>
<path d="M6601 3134 c0 -11 3 -14 6 -6 3 7 2 16 -1 19 -3 4 -6 -2 -5 -13z"/>
<path d="M0 3066 c0 -8 5 -18 10 -21 6 -3 10 1 10 9 0 8 -4 18 -10 21 -5 3
-10 -1 -10 -9z"/>
<path d="M3 2993 c2 -30 22 -51 35 -38 3 3 0 5 -6 5 -7 0 -12 8 -12 18 0 9 -5
24 -10 32 -7 11 -9 7 -7 -17z"/>
<path d="M4 2918 c0 -23 6 -38 14 -38 6 0 12 6 12 13 0 8 3 7 10 -3 5 -8 12
-12 15 -8 3 3 -5 14 -18 25 -13 10 -26 25 -29 33 -3 8 -5 -2 -4 -22z"/>
<path d="M880 1226 c0 -9 7 -19 15 -23 25 -9 27 2 5 22 -18 17 -20 17 -20 1z"/>
<path d="M960 1130 c0 -5 5 -10 11 -10 5 0 7 5 4 10 -3 6 -8 10 -11 10 -2 0
-4 -4 -4 -10z"/>
<path d="M4529 506 c9 -11 9 -15 -1 -19 -7 -3 -3 -4 10 -4 25 1 30 22 6 31
-24 9 -28 7 -15 -8z"/>
<path d="M2080 498 c0 -7 10 -14 21 -15 12 -1 20 -1 18 0 -2 2 -12 9 -21 16
-15 11 -18 11 -18 -1z"/>
<path d="M2348 433 c7 -3 16 -2 19 1 4 3 -2 6 -13 5 -11 0 -14 -3 -6 -6z"/>
<path d="M2320 410 c0 -5 5 -10 11 -10 5 0 7 5 4 10 -3 6 -8 10 -11 10 -2 0
-4 -4 -4 -10z"/>
</g>
</svg>
